<svg viewBox="0 0 120 120" fill="none" xmlns="http://www.w3.org/2000/svg">
<g clip-path="url(#clip0)">
<path d="M60.3231 24.6354C66.0314 24.6354 70.6755 19.9914 70.6755 14.2831C70.6755 8.57474 66.0314 3.93066 60.3231 3.93066C54.6148 3.93066 49.9707 8.57474 49.9707 14.2831C49.9707 19.9914 54.6148 24.6354 60.3231 24.6354V24.6354Z" fill="#EB5757"/>
<path d="M43.9306 56.3918H76.57C78.6956 56.3918 80.4187 54.6687 80.4187 52.5431V38.3117C80.4187 34.3721 77.8869 30.8791 74.1432 29.6525L74.1258 29.6469L68.6501 28.7401C68.1842 28.5968 67.686 28.8435 67.5184 29.3033L61.3054 46.3503C60.9469 47.3338 59.5561 47.3338 59.1976 46.3503L52.9846 29.3033C52.8494 28.9319 52.4989 28.6993 52.1235 28.6993C52.0346 28.6993 51.9438 28.7127 51.8542 28.7401L46.3772 29.6457C42.6027 30.9033 40.0811 34.4024 40.0811 38.3589V52.5431C40.0819 54.6687 41.805 56.3918 43.9306 56.3918V56.3918Z" fill="#EB5757"/>
<path d="M20.2625 84.3129C25.9709 84.3129 30.6149 79.6688 30.6149 73.9605C30.6149 68.2522 25.9709 63.6081 20.2625 63.6081C14.5542 63.6081 9.91016 68.2522 9.91016 73.9605C9.91016 79.6688 14.5542 84.3129 20.2625 84.3129Z" fill="#EB5757"/>
<path d="M34.0617 89.3296L34.0443 89.324L28.5686 88.4172C28.1027 88.2739 27.6045 88.5205 27.4369 88.9804L21.224 106.027C20.8655 107.011 19.4746 107.011 19.1161 106.027L12.9031 88.9804C12.7679 88.609 12.4175 88.3764 12.042 88.3764C11.9532 88.3764 11.8623 88.3897 11.7727 88.4172L6.29573 89.3227C2.52168 90.5804 0 94.0795 0 98.036V112.22C0 114.346 1.72311 116.069 3.84874 116.069H36.4881C38.6137 116.069 40.3368 114.346 40.3368 112.22V97.9888C40.3368 94.0496 37.8055 90.5561 34.0617 89.3296V89.3296Z" fill="#EB5757"/>
<path d="M99.8328 84.3129C105.541 84.3129 110.185 79.6688 110.185 73.9605C110.185 68.2522 105.541 63.6081 99.8328 63.6081C94.1245 63.6081 89.4805 68.2522 89.4805 73.9605C89.4805 79.6688 94.1241 84.3129 99.8328 84.3129Z" fill="#EB5757"/>
<path d="M113.724 89.3296L113.707 89.324L108.231 88.4172C107.765 88.2739 107.267 88.5205 107.099 88.9804L100.886 106.027C100.528 107.011 99.1371 107.011 98.7786 106.027L92.5657 88.9804C92.4304 88.609 92.08 88.3764 91.7045 88.3764C91.6157 88.3764 91.5248 88.3897 91.4352 88.4172L85.9582 89.3227C82.1838 90.5804 79.6621 94.0795 79.6621 98.036V112.22C79.6621 114.346 81.3852 116.069 83.5108 116.069H116.15C118.276 116.069 119.999 114.346 119.999 112.22V97.9888C120 94.0496 117.468 90.5561 113.724 89.3296V89.3296Z" fill="#EB5757"/>
<path d="M63.7372 59.3052H56.9053V74.8689L40.8232 90.951C42.2791 92.9438 43.116 95.3875 43.116 97.9883V98.3202L60.3213 81.1145L76.864 97.6577C76.9468 95.0226 77.8846 92.5626 79.4547 90.5864L63.7372 74.8689V59.3052V59.3052Z" fill="#EB5757"/>
<path d="M62.7952 28.6868C62.5259 28.3937 62.1327 28.246 61.7346 28.246H58.766C58.3679 28.246 57.9747 28.3933 57.7054 28.6868C57.2887 29.1406 57.2282 29.7963 57.5241 30.309L59.1108 32.7011L58.3679 38.9678L59.8306 42.8589C59.9731 43.2501 60.5266 43.2501 60.6696 42.8589L62.1323 38.9678L61.3894 32.7011L62.9761 30.309C63.272 29.7963 63.2118 29.1406 62.7952 28.6868V28.6868Z" fill="#EB5757"/>
<path d="M22.7132 88.3764C22.4439 88.0833 22.0506 87.9355 21.6526 87.9355H18.684C18.2859 87.9355 17.8926 88.0829 17.6234 88.3764C17.2067 88.8302 17.1462 89.4859 17.4421 89.9986L19.0287 92.3907L18.2859 98.6569L19.7486 102.548C19.8911 102.939 20.4446 102.939 20.5871 102.548L22.0498 98.6569L21.307 92.3907L22.8936 89.9986C23.19 89.4863 23.1298 88.8306 22.7132 88.3764V88.3764Z" fill="#EB5757"/>
<path d="M102.376 88.3764C102.107 88.0833 101.714 87.9355 101.316 87.9355H98.347C97.949 87.9355 97.5557 88.0829 97.2864 88.3764C96.8698 88.8302 96.8092 89.4859 97.1052 89.9986L98.6918 92.3907L97.949 98.6569L99.4117 102.548C99.5542 102.939 100.108 102.939 100.25 102.548L101.713 98.6569L100.97 92.3907L102.557 89.9986C102.853 89.4863 102.793 88.8306 102.376 88.3764V88.3764Z" fill="#EB5757"/>
</g>
<defs>
<clipPath id="clip0">
<rect width="120" height="120" fill="white"/>
</clipPath>
</defs>
</svg>
