<svg  viewBox="0 0 91 100" fill="none" xmlns="http://www.w3.org/2000/svg">
<path d="M90.1211 75.2292V85.4708C90.1211 93.4917 69.1736 100 45.1211 100C21.0731 100 0.121094 93.4917 0.121094 85.4708V75.2292C11.0021 82.4708 31.6436 84.6292 45.1211 84.6292C58.6481 84.6292 79.2671 82.45 90.1211 75.2292ZM45.1211 61.025C31.5941 61.025 10.9751 58.8458 0.121094 51.625V61.7667C0.121094 69.7917 21.0731 76.2958 45.1211 76.2958C69.1736 76.2958 90.1211 69.7875 90.1211 61.7667V51.625C79.2401 58.8667 58.5986 61.025 45.1211 61.025ZM45.1211 0C21.0731 0 0.121094 6.50833 0.121094 14.5333C0.121094 22.5583 21.0731 29.0625 45.1211 29.0625C69.1736 29.0625 90.1211 22.5542 90.1211 14.5333C90.1211 6.50833 69.1736 0 45.1211 0V0ZM45.1211 37.3958C31.5941 37.3958 10.9751 35.2167 0.121094 27.9958V38.1625C0.121094 46.1875 21.0731 52.6917 45.1211 52.6917C69.1736 52.6917 90.1211 46.1833 90.1211 38.1625V27.9958C79.2401 35.2375 58.5986 37.3958 45.1211 37.3958Z" fill="#EB5757"/>
</svg>
