
<svg version="1.0" xmlns="http://www.w3.org/2000/svg"
 width="512.000000pt" height="512.000000pt" viewBox="0 0 512.000000 512.000000"
 preserveAspectRatio="xMidYMid meet" fill="#F9f5f1">

<g transform="translate(0.000000,512.000000) scale(0.100000,-0.100000)" stroke="none">
<path d="M2315 5109 c-798 -81 -1501 -518 -1927 -1196 -487 -774 -516 -1777
-75 -2578 313 -571 826 -998 1446 -1205 272 -91 490 -125 801 -125 291 0 482
27 730 102 805 243 1439 859 1700 1651 91 276 125 491 125 797 0 259 -17 403
-75 631 -49 193 -93 313 -185 499 -123 251 -262 448 -459 652 -399 413 -897
669 -1476 758 -125 19 -477 28 -605 14z m584 -184 c410 -60 818 -236 1145
-493 99 -77 330 -311 403 -407 154 -204 294 -461 367 -671 93 -273 130 -497
130 -794 0 -243 -15 -369 -69 -585 -170 -674 -637 -1250 -1260 -1555 -239
-117 -459 -186 -720 -226 -166 -25 -502 -25 -670 0 -530 80 -1009 324 -1375
702 -191 196 -317 377 -435 619 -113 231 -185 461 -221 710 -25 165 -25 505 0
670 20 136 70 338 116 470 72 207 232 494 378 679 77 99 311 330 407 403 351
264 769 438 1165 482 52 6 111 13 130 15 72 9 409 -4 509 -19z"/>
<path d="M2133 4735 c-376 -78 -679 -220 -968 -452 -190 -153 -384 -376 -507
-581 -61 -103 -66 -142 -24 -178 l27 -24 600 0 c422 0 599 -3 599 -11 0 -6
-10 -44 -22 -85 l-23 -74 -371 0 c-366 0 -371 0 -414 -23 -72 -38 -99 -118
-64 -192 11 -24 208 -183 740 -599 398 -312 724 -571 724 -575 0 -4 -29 -30
-64 -59 l-64 -51 -333 261 c-184 144 -559 438 -834 653 -275 215 -522 408
-548 428 -61 47 -115 51 -145 12 -23 -29 -52 -148 -79 -315 -24 -157 -24 -462
0 -620 75 -491 283 -906 628 -1252 117 -117 130 -128 164 -128 51 0 71 14 89
62 9 24 97 304 196 622 99 318 182 581 184 584 9 8 136 -99 136 -114 0 -8 -46
-159 -101 -337 -56 -179 -101 -340 -102 -363 -1 -113 131 -184 224 -121 19 13
291 227 604 477 725 577 729 580 735 580 3 0 18 -37 33 -82 21 -65 24 -85 14
-94 -6 -6 -376 -300 -822 -653 -445 -354 -827 -660 -847 -682 -44 -45 -49 -83
-16 -119 49 -53 349 -175 548 -223 198 -48 310 -61 525 -61 278 0 491 35 739
121 130 45 338 144 371 177 36 36 33 78 -7 120 -18 18 -231 188 -473 376 -242
189 -446 348 -453 355 -11 10 -2 22 50 64 34 28 68 50 75 49 6 -2 121 -88 254
-193 133 -104 251 -195 263 -202 12 -7 44 -12 73 -13 41 0 58 5 83 26 38 33
60 74 60 115 0 17 -127 425 -281 908 -155 482 -284 884 -286 894 -5 15 4 17
84 17 l89 0 354 -1107 c383 -1195 371 -1163 439 -1163 25 0 47 15 112 78 348
331 578 782 655 1283 25 158 25 463 1 619 -44 276 -70 340 -140 340 -30 0 -94
-47 -518 -385 -266 -212 -487 -385 -490 -385 -3 0 -17 38 -31 85 l-25 84 297
236 c308 244 330 267 330 337 0 17 -11 50 -25 73 -46 79 5 75 -956 75 -677 0
-850 3 -846 13 2 6 15 45 28 85 l23 72 1027 0 1028 0 27 24 c43 36 37 75 -25
179 -162 272 -422 541 -696 719 -258 169 -643 310 -911 335 -84 8 -111 -1
-131 -41 -15 -33 -14 -36 140 -517 85 -266 158 -494 161 -506 7 -23 6 -23 -81
-23 l-89 0 -79 246 c-87 270 -100 293 -173 315 -38 11 -48 10 -89 -7 -25 -10
-55 -31 -65 -45 -11 -14 -131 -383 -268 -820 -136 -437 -250 -794 -253 -794
-10 0 -137 99 -137 107 0 8 97 320 406 1308 118 378 214 696 214 708 0 13 -11
34 -25 47 -32 32 -98 32 -252 0z m64 -177 c-2 -7 -43 -139 -91 -293 -48 -154
-110 -351 -137 -437 l-50 -158 -540 0 -540 0 41 60 c262 386 698 689 1165 811
123 31 160 35 152 17z m858 -12 c473 -115 917 -423 1194 -828 l32 -48 -535 0
-535 0 -50 158 c-28 86 -93 289 -144 450 -76 236 -91 292 -78 292 9 0 61 -11
116 -24z m-385 -868 c0 -5 -47 -8 -105 -8 -58 0 -105 3 -105 6 0 6 54 183 92
304 11 34 12 32 65 -130 29 -91 53 -168 53 -172z m-913 -530 c-2 -7 -28 -91
-58 -186 -38 -125 -57 -171 -66 -168 -15 6 -463 356 -463 362 0 2 133 4 296 4
233 0 295 -3 291 -12z m1083 8 c0 -3 49 -157 109 -343 60 -186 111 -346 113
-356 2 -13 -62 -69 -241 -212 l-244 -194 -36 28 c-286 222 -454 357 -458 367
-4 10 175 604 208 692 l9 22 270 0 c148 0 270 -2 270 -4z m1120 0 c0 -6 -439
-356 -454 -362 -8 -3 -30 49 -69 174 -31 98 -57 181 -57 185 0 4 131 7 290 7
160 0 290 -2 290 -4z m-2932 -544 c249 -195 451 -360 449 -366 -3 -6 -82 -261
-177 -566 -95 -305 -176 -559 -180 -563 -4 -5 -37 25 -73 65 -430 479 -610
1096 -505 1730 7 45 15 65 22 61 6 -4 215 -166 464 -361z m3551 296 c94 -547
-46 -1125 -379 -1569 -90 -121 -165 -206 -174 -198 -3 3 -86 256 -184 563
l-179 557 446 354 c245 195 449 355 452 355 4 0 12 -28 18 -62z m-2471 -1141
c28 -21 52 -42 51 -46 -1 -9 -400 -323 -405 -319 -3 4 16 68 117 391 l40 127
72 -56 c40 -31 96 -75 125 -97z m1244 -214 c25 -79 41 -140 35 -136 -37 22
-392 307 -389 312 1 3 55 48 120 99 l117 93 36 -113 c20 -62 56 -177 81 -255z
m-327 -504 c228 -178 414 -327 415 -331 1 -18 -261 -113 -407 -147 -156 -36
-289 -51 -473 -51 -199 0 -328 16 -510 61 -134 33 -342 108 -337 122 1 5 196
163 432 351 375 299 432 341 448 331 10 -7 204 -158 432 -336z"/>
</g>
</svg>
