<svg version="1.0" xmlns="http://www.w3.org/2000/svg"
 width="514.000000pt" height="486.000000pt" viewBox="0 0 514.000000 486.000000"
 preserveAspectRatio="xMidYMid meet">

<g transform="translate(0.000000,486.000000) scale(0.100000,-0.100000)"
stroke="none" fill="#25A9E2">
<path d="M2445 4689 c-133 -39 -256 -113 -229 -138 9 -9 151 -113 299 -221 75
-54 247 -179 385 -279 47 -34 133 -96 191 -139 58 -42 148 -107 200 -144 52
-37 114 -82 138 -100 24 -18 64 -48 90 -65 25 -18 73 -53 106 -78 33 -25 100
-73 148 -107 49 -34 92 -69 97 -78 10 -19 -6 -80 -84 -310 -31 -91 -128 -388
-216 -660 -138 -426 -206 -629 -235 -703 -7 -16 7 -17 249 -15 l257 3 68 205
c37 113 103 315 146 450 42 135 97 301 120 370 24 69 53 154 64 190 11 36 51
160 89 275 122 373 121 369 109 384 -6 7 -38 32 -72 54 -33 23 -83 59 -112 82
-29 22 -87 65 -130 96 -285 204 -404 290 -578 418 -44 32 -127 93 -185 134
-58 42 -125 91 -149 109 -208 157 -298 214 -391 249 -115 42 -268 50 -375 18z"  />
<path d="M1880 4333 c-35 -27 -92 -68 -126 -93 -35 -25 -125 -90 -200 -145
-130 -95 -184 -135 -344 -250 -39 -27 -131 -95 -206 -150 -139 -101 -223 -162
-311 -224 -143 -101 -278 -208 -312 -247 -51 -58 -115 -182 -136 -264 -22 -83
-16 -250 10 -327 19 -55 33 -64 56 -37 7 9 38 32 68 51 31 20 76 52 101 73 25
20 59 45 76 56 18 10 69 47 115 81 46 35 126 93 178 130 217 157 425 309 510
371 35 26 90 65 122 87 64 45 137 98 269 197 139 104 210 150 223 144 7 -3 35
-23 63 -43 203 -149 334 -244 389 -283 36 -25 128 -92 206 -150 78 -58 170
-125 205 -150 136 -96 244 -174 359 -260 136 -101 203 -145 211 -137 3 3 18
49 34 104 16 54 49 157 74 228 l46 130 -29 25 c-17 14 -79 60 -138 103 -59 43
-146 105 -191 139 -46 33 -104 75 -128 92 -24 17 -105 76 -179 131 -75 55
-153 111 -173 125 -21 14 -80 57 -132 96 -52 39 -157 115 -233 170 -194 140
-268 194 -323 236 -27 21 -59 38 -70 38 -12 0 -50 -21 -84 -47z" />
<path d="M1938 3436 c-14 -8 -51 -33 -83 -57 -32 -24 -77 -57 -101 -74 -24
-16 -104 -75 -178 -130 -75 -55 -164 -120 -199 -145 -35 -25 -93 -66 -128 -93
-35 -26 -104 -76 -154 -112 -49 -36 -119 -86 -154 -112 -35 -27 -89 -66 -121
-88 -32 -22 -86 -61 -121 -87 -100 -74 -240 -176 -288 -209 -34 -24 -42 -35
-38 -52 3 -12 112 -346 241 -742 130 -396 252 -774 271 -840 20 -66 59 -167
87 -223 44 -87 63 -114 122 -169 78 -72 186 -129 297 -157 67 -16 179 -22 179
-8 0 18 -31 119 -77 252 -28 80 -87 258 -132 395 -45 138 -113 345 -151 460
-38 116 -98 305 -135 420 -36 116 -82 258 -101 317 -19 59 -34 113 -33 120 0
17 78 76 546 413 23 16 141 102 262 190 122 88 252 183 290 210 310 223 331
239 320 249 -13 12 -144 109 -185 137 -27 18 -73 52 -102 76 -79 64 -103 75
-134 59z" />
<path d="M4670 3308 c-6 -24 -40 -131 -75 -238 -35 -107 -93 -287 -130 -400
-363 -1124 -410 -1266 -427 -1287 -8 -10 -198 -13 -888 -13 -482 0 -879 -2
-881 -4 -3 -3 24 -92 58 -198 34 -106 68 -211 75 -233 12 -35 17 -40 53 -47
22 -4 464 -7 982 -7 706 -1 944 2 949 11 9 15 88 252 199 598 48 151 145 451
216 665 174 529 183 564 176 690 -4 95 -33 211 -68 277 -23 44 -134 169 -169
191 -19 12 -40 25 -47 30 -8 5 -15 -6 -23 -35z"  />
<path d="M1550 2219 c-58 -43 -139 -102 -181 -130 -41 -28 -81 -60 -88 -71
-17 -27 -6 -74 79 -328 37 -113 95 -288 128 -390 33 -102 123 -378 200 -615
77 -237 148 -457 159 -490 l18 -60 975 0 c930 0 978 1 1030 19 200 69 350 208
405 376 10 30 20 61 23 67 3 10 -211 13 -1038 15 l-1041 3 -46 130 c-45 130
-171 516 -199 610 -9 28 -46 145 -84 260 -101 308 -196 605 -206 644 -5 19
-14 36 -19 37 -6 1 -57 -33 -115 -77z" />
</g>
</svg>
