<svg width="110" height="110" viewBox="0 0 110 110" fill="none" xmlns="http://www.w3.org/2000/svg">
<path d="M5.79226 82.7557V70.9836C12.9351 77.5176 27.6112 81.6862 44.6057 81.6862C46.3231 81.6862 48.0015 81.6159 49.6564 81.5301L57.4706 73.7158C53.505 74.2857 49.2037 74.6214 44.6057 74.6214C21.7329 74.6214 5.79226 66.6198 5.79226 59.4379V47.6659C12.9351 54.1998 27.6112 58.3763 44.6057 58.3763C52.2325 58.3763 59.3364 57.502 65.5503 55.9797C66.3231 52.943 67.5409 50.0234 69.2193 47.3458C62.7087 49.5472 54.2934 50.9836 44.6135 50.9836C21.7407 50.9836 5.80007 42.982 5.80007 35.8002V25.3708C12.779 31.2881 28.9461 34.3482 44.6135 34.3482C60.2966 34.3482 76.4558 31.2881 83.4425 25.3708V35.4723C84.9414 34.8634 86.5105 34.395 88.103 34.0437V23.2709C88.103 21.5769 87.0569 16.4091 87.0569 15.5816C87.0569 5.46448 65.1834 0 44.6135 0C24.0514 0 2.18571 5.46448 2.18571 15.5816C2.18571 16.4012 1.13965 21.5769 1.13965 23.2709V35.7924C1.13965 37.7205 1.74855 39.5628 2.82583 41.3193L2.68532 41.5613C1.66268 43.3411 1.13965 45.1444 1.13965 46.9243V59.4457C1.13965 61.3115 1.71732 63.1069 2.73215 64.8087L2.68532 64.8868C1.66268 66.6745 1.13965 68.4699 1.13965 70.2498V82.7713C1.13965 92.3888 15.4098 100.187 35.0116 102.131C35.3161 100.226 35.6127 98.7432 35.9328 97.5488C17.8063 95.8314 5.79226 88.993 5.79226 82.7557Z" fill="#EB5757"/>
<path d="M103.286 46.0495C95.8468 38.61 83.7781 38.61 76.3308 46.0495C70.9054 51.4749 69.4534 59.3672 71.9436 66.1275L41.8499 96.2134C41.3581 96.7052 39.7812 109.258 39.7812 109.258L40.5229 110C40.5229 110 52.615 107.962 53.1146 107.478L55.9951 104.597H62.0841C62.7789 104.597 63.341 104.043 63.341 103.341V97.642H66.3855C67.0802 97.642 67.6345 97.0799 67.6345 96.3851V92.9425L68.0404 92.5444H72.9428C73.6454 92.5444 74.2075 91.9823 74.2075 91.2876V86.3851L83.2005 77.3922C89.9608 79.8824 97.8531 78.4382 103.279 72.9972C110.726 65.5577 110.726 53.489 103.286 46.0495ZM48.0873 98.2899C47.3457 99.0237 46.1591 99.0237 45.4175 98.2899C44.6837 97.5561 44.6837 96.3617 45.4175 95.6201L72.8414 68.1962C73.419 69.336 74.1138 70.4133 74.9413 71.4359L48.0873 98.2899ZM101.686 57.2204C99.0397 59.8668 94.7461 59.8668 92.0998 57.2204C89.4534 54.5741 89.4534 50.2805 92.0998 47.6342C94.7461 44.9956 99.0397 44.9878 101.686 47.6342C104.332 50.2805 104.332 54.5741 101.686 57.2204Z" fill="#EB5757"/>
</svg>
